<?xml version="1.0" encoding="UTF-8" standalone="no"?>
<svg
   xmlns:dc="http://purl.org/dc/elements/1.1/"
   xmlns:cc="http://creativecommons.org/ns#"
   xmlns:rdf="http://www.w3.org/1999/02/22-rdf-syntax-ns#"
   xmlns:svg="http://www.w3.org/2000/svg"
   xmlns="http://www.w3.org/2000/svg"
   xmlns:sodipodi="http://sodipodi.sourceforge.net/DTD/sodipodi-0.dtd"
   xmlns:inkscape="http://www.inkscape.org/namespaces/inkscape"
   width="24"
   height="24"
   viewBox="0 0 24 24"
   version="1.1"
   id="svg4"
   sodipodi:docname="iconmonstr-pen-color.svg"
   inkscape:version="0.92.3 (2405546, 2018-03-11)">
  <metadata
     id="metadata10">
    <rdf:RDF>
      <cc:Work
         rdf:about="">
        <dc:format>image/svg+xml</dc:format>
        <dc:type
           rdf:resource="http://purl.org/dc/dcmitype/StillImage" />
        <dc:title></dc:title>
      </cc:Work>
    </rdf:RDF>
  </metadata>
  <defs
     id="defs8" />
  <sodipodi:namedview
     pagecolor="#ffffff"
     bordercolor="#666666"
     borderopacity="1"
     objecttolerance="10"
     gridtolerance="10"
     guidetolerance="10"
     inkscape:pageopacity="0"
     inkscape:pageshadow="2"
     inkscape:window-width="1920"
     inkscape:window-height="1022"
     id="namedview6"
     showgrid="false"
     inkscape:zoom="22.627417"
     inkscape:cx="18.453492"
     inkscape:cy="13.023285"
     inkscape:window-x="0"
     inkscape:window-y="0"
     inkscape:window-maximized="1"
     inkscape:current-layer="svg4" />
  <path
     d="M12 0c-6.627 0-12 5.373-12 12s5.373 12 12 12 12-5.373 12-12-5.373-12-12-12zm-.994 9.095l2.974-2.884c.144-.14.331-.211.516-.211.188 0 .375.073.518.22l-4.032 3.911c-.283-.294-.268-.752.024-1.036zm-4.49 8.819c-.06.057-.136.086-.212.086-.168 0-.304-.137-.304-.304 0-.079.031-.159.093-.218l.5-.485.422.436-.499.485zm4.034-2.386c-.919.891-1.796 1.333-3.013 1.728l-.754-.779c.433-1.205.901-2.067 1.819-2.958l1.71-1.657 1.946 2.009-1.708 1.657zm6.965-6.483l-4.402 4.269-2.218-2.29 4.402-4.27c1.016-.984 2.703-.246 2.703 1.146 0 .416-.162.832-.485 1.145z"
     id="path2" />
  <path
     style="stroke-width:0.10169491"
     d="M 10.901695,23.881238 C 6.0634251,23.506461 1.7512134,19.890183 0.48048073,15.141868 -0.64102442,10.951167 0.51331918,6.6365796 3.579661,3.5580672 5.2708024,1.8602136 7.4418516,0.70768428 9.8019923,0.25486274 10.783146,0.0666166 12.872177,0.03677239 13.865927,0.19680481 c 2.408336,0.3878362 4.576026,1.47654809 6.37102,3.19981489 1.074515,1.0315773 1.719975,1.8866949 2.34889,3.1118549 1.49874,2.9196279 1.76223,6.2416254 0.735296,9.2703564 -0.641866,1.893046 -1.612956,3.41211 -3.084186,4.82455 -2.539177,2.437711 -5.727732,3.557298 -9.335252,3.277857 z M 6.7847989,17.693091 7.0788367,17.386182 6.8532594,17.160604 C 6.5995113,16.906856 6.4257682,16.962487 6.097081,17.402728 c -0.4234235,0.567131 0.178911,0.821443 0.6877179,0.290363 z m 2.043507,-0.91566 C 9.6232454,16.395104 10.893091,15.372669 11.9366,14.274741 l 0.373888,-0.393385 -0.9866,-1.054634 -0.986599,-1.054636 -1.0468075,0.995341 C 8.0820137,13.91648 7.4445613,14.760636 7.0171376,15.777935 l -0.3027799,0.720637 0.3900775,0.399476 c 0.458856,0.469911 0.5023657,0.466867 1.7238707,-0.120617 z M 15.474449,11.09662 c 1.237278,-1.1960121 2.316262,-2.3034854 2.397743,-2.4610519 0.08148,-0.1575666 0.148147,-0.4763327 0.148147,-0.7083692 0,-0.8419335 -0.535851,-1.4888845 -1.320355,-1.5941085 -0.891816,-0.1196176 -0.961573,-0.072574 -3.435261,2.3167079 -1.271699,1.2283068 -2.32915,2.2838067 -2.349891,2.3455537 -0.04055,0.120707 2.12427,2.344785 2.240361,2.301692 0.03831,-0.01422 1.081979,-1.004413 2.319256,-2.200424 z M 13.038448,8.213347 C 15.152743,6.1637615 15.260683,6 14.497333,6 14.190451,6 13.9701,6.1735759 12.528575,7.5508475 c -0.89276,0.8529661 -1.671858,1.6682803 -1.731327,1.8118095 -0.104259,0.2516243 0.0068,0.806835 0.161355,0.806835 0.03407,0 0.969999,-0.8802656 2.079845,-1.956145 z"
     id="path31"
     inkscape:connector-curvature="0" />
  <path
     style="stroke-width:0.10169491"
     d="M 10.901695,23.887374 C 6.0293604,23.479013 1.7545425,19.89404 0.48179998,15.148982 -0.64353431,10.953493 0.50909872,6.6408168 3.579661,3.5580672 5.8323545,1.2964328 8.7184789,0.09623354 11.918644,0.09028847 c 2.454511,-0.0045598 4.417416,0.53764871 6.38057,1.76248913 1.002822,0.6256753 2.545541,2.0404035 3.283401,3.0109963 0.70946,0.9332323 1.661669,2.9059236 1.996539,4.1362261 0.257038,0.9443476 0.276799,1.158522 0.276799,3 0,1.841478 -0.01976,2.055652 -0.276799,3 -0.333006,1.223456 -1.28611,3.201801 -1.985783,4.121865 -1.181534,1.553705 -3.110507,3.093208 -4.784936,3.81883 -1.049144,0.454651 -2.505812,0.837092 -3.458121,0.907914 -0.423859,0.03152 -0.930822,0.07136 -1.126585,0.08852 -0.195763,0.01717 -0.790678,-0.0052 -1.322034,-0.04976 z M 6.7847989,17.693091 7.0788367,17.386182 6.8612596,17.168604 C 6.6545644,16.961909 6.6308165,16.959458 6.3864362,17.119581 6.0243789,17.35681 5.8714842,17.668098 6.025734,17.853958 6.2141027,18.080929 6.4639571,18.027977 6.7847989,17.693091 Z M 8.3625866,16.999137 C 9.3082328,16.595563 10.088672,16.02976 11.282166,14.882499 l 1.041489,-1.001143 -0.99659,-1.051691 -0.996588,-1.05169 -1.2230731,1.204232 C 7.8692274,14.201312 7.349664,14.914062 6.9390436,15.956818 l -0.2165963,0.550039 0.381449,0.390639 c 0.209797,0.214852 0.429365,0.389402 0.4879289,0.387889 0.058564,-0.0015 0.4054066,-0.130325 0.7707614,-0.286248 z M 15.428893,11.135002 C 16.673954,9.9321351 17.766372,8.7925919 17.85649,8.6026842 18.212387,7.8526861 17.909374,6.8666536 17.208366,6.4936374 16.751812,6.250698 16.025625,6.2509416 15.626777,6.4941662 c -0.31771,0.193747 -4.647719,4.3281538 -4.70775,4.4950858 -0.03058,0.08503 2.087582,2.33278 2.198294,2.33278 0.0263,0 1.066511,-0.984164 2.311572,-2.187032 z M 13.228263,8.0012361 C 14.257714,6.9671708 14.966345,6.1788773 14.925652,6.1130334 14.887229,6.0508651 14.692705,6 14.493376,6 c -0.331308,0 -0.501898,0.137489 -1.987309,1.6016949 -0.893689,0.8809322 -1.664904,1.704661 -1.713809,1.8305085 -0.0529,0.136124 -0.04871,0.3345808 0.01035,0.4899108 l 0.09927,0.2610968 0.27957,-0.2034026 c 0.153762,-0.1118716 1.07483,-1.0022292 2.046815,-1.9785723 z"
     id="path33"
     inkscape:connector-curvature="0" />
  <path
     style="stroke-width:0.10169491"
     d="M 10.901695,23.897443 C 5.5327689,23.375769 1.1596712,19.339738 0.214403,14.033898 c -0.17454014,-0.979703 -0.17454014,-3.088093 0,-4.0677963 0.8743269,-4.9076425 4.694786,-8.7698531 9.6111294,-9.71616343 1.0877586,-0.20937458 3.3073846,-0.20680504 4.4131526,0.005109 0.888113,0.1702014 2.330479,0.64292987 3.018942,0.98944353 1.590421,0.800482 3.552956,2.4939473 4.532795,3.9113335 0.710764,1.0281578 1.473609,2.6688117 1.7951,3.8607307 0.248553,0.9215023 0.269832,1.15678 0.269832,2.983445 0,1.832464 -0.02076,2.060275 -0.273444,3 -0.327539,1.218128 -1.277021,3.186224 -1.988539,4.121865 -1.633344,2.147832 -3.99708,3.745202 -6.535795,4.416771 -0.790748,0.209177 -2.921187,0.498538 -3.291474,0.447055 -0.05593,-0.0078 -0.444916,-0.04749 -0.864407,-0.08825 z M 6.7560227,17.700645 7.0881356,17.401291 6.8715588,17.181808 C 6.6629879,16.97044 6.6450872,16.968809 6.3873134,17.137709 5.9753309,17.407651 5.9009071,18 6.2789736,18 c 0.079715,0 0.294387,-0.13471 0.4770491,-0.299355 z m 1.5248458,-0.676529 c 0.9609562,-0.404461 1.6063638,-0.860447 2.8779545,-2.033299 l 1.165868,-1.075338 -0.984848,-1.048767 -0.984846,-1.048767 -0.8398675,0.768656 C 8.1532082,13.833046 7.474843,14.724033 6.9460392,15.960928 l -0.2369124,0.554148 0.41438,0.38653 c 0.2279091,0.212592 0.4404124,0.38653 0.4722298,0.38653 0.031817,0 0.3401266,-0.11881 0.6851319,-0.26402 z M 15.648727,10.910117 C 17.590841,9.0027086 17.913873,8.6419274 17.973604,8.3135593 18.245029,6.8214299 16.69565,5.739775 15.513508,6.5961137 15.11904,6.8818654 11.275894,10.567585 11.030997,10.895008 c -0.107238,0.143376 0.02723,0.326955 0.949274,1.29601 0.872053,0.91651 1.106083,1.110654 1.24358,1.031637 0.09315,-0.05354 1.184348,-1.094176 2.424876,-2.312538 z M 13.32768,7.8972267 C 14.253361,6.9630545 14.960985,6.1702036 14.923374,6.1093474 14.810599,5.9268756 14.302908,5.9866695 13.991681,6.2190784 13.830324,6.3395715 13.046186,7.0826236 12.249153,7.8703054 10.918873,9.184975 10.8,9.332454 10.8,9.6681761 c 0,0.2011472 0.02928,0.3950059 0.06507,0.4307959 0.106694,0.106694 0.706891,-0.4299247 2.462605,-2.2017453 z"
     id="path35"
     inkscape:connector-curvature="0" />
  <path
     style="stroke-width:0.10169491;stroke:#ff00ff"
     d="M 10.745287,23.891306 C 8.0086648,23.588747 5.4841545,22.365273 3.5288136,20.393928 1.8465283,18.697874 0.76625208,16.69253 0.26702261,14.338983 0.0155381,13.153394 0.0155381,10.846606 0.26702261,9.6610169 1.1347418,5.5702773 3.9984214,2.2282165 7.8914947,0.76286771 9.6194246,0.11247662 12.353384,-0.10625965 14.238685,0.25504712 c 0.938873,0.17992924 2.342414,0.64858598 3.120637,1.04201258 1.526056,0.7714893 3.462813,2.4580885 4.4311,3.8587645 0.710764,1.0281578 1.473609,2.6688117 1.7951,3.8607307 0.248553,0.9215022 0.269832,1.1567801 0.269832,2.9834451 0,1.826665 -0.02128,2.061943 -0.269832,2.983445 -0.321253,1.19104 -1.08422,2.832406 -1.793597,3.858556 -0.95465,1.380949 -2.538848,2.791918 -4.15492,3.700586 -1.856797,1.044019 -4.669294,1.59443 -6.891718,1.348719 z M 6.7560227,17.694236 7.0881356,17.388472 6.8433989,17.181991 6.5986623,16.975509 6.3095006,17.252543 c -0.2773342,0.265704 -0.365285,0.53574 -0.221365,0.67966 0.1353929,0.135394 0.3425065,0.0616 0.6678871,-0.237967 z m 2.1190196,-0.967784 c 0.303642,-0.153147 0.7351272,-0.419961 0.958856,-0.592922 0.6428957,-0.497009 2.3898307,-2.125443 2.3898307,-2.227718 0,-0.05095 -0.422892,-0.542076 -0.93976,-1.091404 l -0.939761,-0.998776 -0.865324,0.829127 c -1.3529835,1.296386 -1.8145052,1.875139 -2.3157701,2.904 l -0.4655421,0.955539 0.4177294,0.389654 c 0.415044,0.387148 0.4202683,0.388758 0.812697,0.250301 0.2172321,-0.07664 0.643402,-0.264654 0.9470441,-0.417801 z M 15.152575,11.379283 C 17.933977,8.6865244 18.114314,8.4490101 17.984557,7.6494064 17.821674,6.6456789 16.665149,6.0217313 15.761973,6.450317 c -0.402004,0.1907625 -4.758583,4.379865 -4.758583,4.575651 0,0.184362 1.922497,2.194371 2.098832,2.194371 0.08178,0 1.004439,-0.828475 2.050353,-1.841056 z M 13.526016,7.6885221 C 14.326172,6.8711202 14.952708,6.1568109 14.918319,6.1011683 14.883929,6.0455258 14.722381,6 14.559321,6 c -0.354734,0 -1.159326,0.6696583 -2.716948,2.261305 -1.042864,1.0656439 -1.161249,1.2766807 -0.980462,1.747804 0.08253,0.215058 0.757469,-0.3728573 2.664105,-2.3205869 z"
     id="path37"
     inkscape:connector-curvature="0" />
  <path
     style="fill:#0000ff;stroke:#ff00ff;stroke-width:0.02542373"
     d="M 7.3464028,17.019083 C 7.2652743,16.950981 7.1088269,16.802123 6.998742,16.688288 6.8211876,16.504685 6.8002412,16.473046 6.8132334,16.408086 c 0.020921,-0.104607 0.58982,-1.2413 0.7628389,-1.524197 0.3729065,-0.609726 0.7639829,-1.057581 1.8607573,-2.130912 0.4530757,-0.443391 0.8397744,-0.81512 0.8593304,-0.826065 0.02518,-0.01409 0.120229,0.06708 0.325692,0.278132 0.626345,0.643393 1.521959,1.637428 1.521959,1.689211 0,0.08357 -1.893201,1.830196 -2.3688481,2.185447 -0.4474172,0.334168 -1.106637,0.690156 -1.7522676,0.946251 -0.4007275,0.158952 -0.4797095,0.15815 -0.6762925,-0.0069 z"
     id="path57"
     inkscape:connector-curvature="0" />
  <path
     style="fill:#0000ff;stroke:#ff00ff;stroke-width:0.02542373"
     d="m 12.964564,13.057237 c -0.317936,-0.246762 -1.567995,-1.559621 -1.822629,-1.914192 l -0.08151,-0.113496 0.157312,-0.185679 C 11.430044,10.593286 12.819978,9.210104 13.680599,8.3929773 15.179148,6.9701619 15.6834,6.533987 15.92531,6.4513186 c 0.528798,-0.1807078 1.14915,-0.021081 1.568539,0.4036095 0.317718,0.321735 0.440849,0.61893 0.4434,1.0702131 0.0014,0.255546 -0.0024,0.2750943 -0.08985,0.4576272 -0.19583,0.4087283 -0.63509,0.8982518 -2.020687,2.2519076 -1.363336,1.331907 -2.190325,2.104522 -2.595201,2.424566 l -0.130974,0.103531 z"
     id="path59"
     inkscape:connector-curvature="0" />
  <path
     style="fill:#0000ff;stroke:#ff00ff;stroke-width:0.02542373"
     d="M 10.882012,9.8765973 C 10.844035,9.7355624 10.862274,9.5616636 10.929633,9.4225587 11.037297,9.200218 11.3424,8.8616195 12.28043,7.9234665 13.448041,6.7557014 13.961165,6.3076893 14.331922,6.132293 14.453557,6.074751 14.502406,6.06545 14.637733,6.074067 c 0.08858,0.00564 0.172672,0.021874 0.186873,0.036074 0.03013,0.030126 -0.212518,0.3313302 -0.673616,0.8361866 -0.420918,0.4608631 -2.336011,2.3690522 -2.646055,2.6365151 -0.275681,0.2378197 -0.503781,0.4016205 -0.559277,0.4016205 -0.01918,0 -0.04754,-0.048059 -0.06365,-0.107866 z"
     id="path61"
     inkscape:connector-curvature="0" />
  <path
     style="fill:#0000ff;stroke:#ff00ff;stroke-width:0.02542373"
     d="m 6.1455877,17.882122 c -0.078555,-0.07855 -0.081383,-0.144039 -0.012378,-0.286584 0.054451,-0.112481 0.3501148,-0.449362 0.4335925,-0.494037 0.039432,-0.0211 0.080217,0.0016 0.2353934,0.13111 l 0.1876975,0.156637 -0.1939788,0.177867 c -0.2188123,0.200638 -0.415169,0.338635 -0.516852,0.363238 -0.053269,0.01289 -0.083152,0.0021 -0.1334745,-0.04823 z"
     id="path63"
     inkscape:connector-curvature="0" />
  <path
     style="fill:#0000ff;stroke:#ff00ff;stroke-width:0.00390625"
     d="m 10.445394,12.009933 c -0.05865,-0.05323 -0.108178,-0.08715 -0.127775,-0.08751 -0.0079,-1.48e-4 -0.0069,-0.0019 0.0086,-0.01556 0.0165,-0.01449 0.01791,-0.015 0.02382,-0.0086 0.0035,0.0037 0.03228,0.0345 0.06406,0.0684 0.03178,0.0339 0.0571,0.06229 0.05626,0.0631 -8.36e-4,8.08e-4 -0.01207,-0.0081 -0.02496,-0.0198 z"
     id="path65"
     inkscape:connector-curvature="0" />
  <path
     style="fill:#0000ff;stroke:#ff00ff;stroke-width:0.00390625"
     d=""
     id="path67"
     inkscape:connector-curvature="0" />
  <path
     style="fill:#0000ff;stroke:#ff00ff;stroke-width:0.00390625"
     d=""
     id="path69"
     inkscape:connector-curvature="0" />
  <path
     style="fill:#0000ff;stroke:#ff00ff;stroke-width:0.00390625"
     d="m 10.911987,9.9890518 c -0.0092,-0.014116 -0.0055,-0.014725 0.0093,-0.00151 0.01088,0.00972 0.01161,0.011396 0.005,0.011396 -0.0043,0 -0.0107,-0.00445 -0.01426,-0.00989 z"
     id="path75"
     inkscape:connector-curvature="0" />
  <path
     style="fill:#0000ff;stroke:#ff00ff;stroke-width:0.00552427"
     d="m 6.6340027,17.090116 c -0.00608,-0.0036 -0.023044,-0.0079 -0.037705,-0.0095 l -0.026656,-0.0029 0.015608,-0.01489 0.015608,-0.01489 0.027621,0.02435 c 0.026395,0.02326 0.029057,0.03187 0.00552,0.01785 z"
     id="path77"
     inkscape:connector-curvature="0" />
  <path
     style="fill:#333333;stroke:#ff0000;stroke-width:0.0625"
     d="M 10.91167,23.825381 C 6.267533,23.411666 2.1170638,20.063331 0.67956252,15.570764 0.25917961,14.256958 0.2046185,13.843954 0.20579355,11.984539 0.20674358,10.481179 0.22176785,10.229824 0.34347933,9.6810682 1.248664,5.5998986 4.0823225,2.2819298 7.8712666,0.86668172 9.9269654,0.09883619 12.72542,-0.05421657 14.834208,0.48586544 c 0.894721,0.2291471 1.839705,0.56320666 2.428544,0.85851006 1.341424,0.672725 3.124878,2.1508293 4.131518,3.4241491 0.915105,1.1575346 1.893718,3.2476067 2.252862,4.8115461 0.08872,0.3863544 0.107771,0.8068383 0.110338,2.4357183 0.0031,1.962475 0.0025,1.970922 -0.173404,2.650258 -0.417689,1.612724 -1.260756,3.364971 -2.198061,4.568492 -0.442415,0.568069 -1.426711,1.557188 -2.029503,2.039445 -0.602829,0.482287 -1.644123,1.154799 -2.215374,1.430782 -1.166074,0.563355 -2.870975,1.000612 -4.371827,1.121244 -0.880822,0.0708 -1.056513,0.07074 -1.857631,-6.31e-4 z M 6.8344673,17.729426 c 0.1839943,-0.157192 0.334535,-0.308365 0.334535,-0.335941 0,-0.02758 -0.1286925,-0.155592 -0.2859832,-0.28448 L 6.5970366,16.874664 6.3444954,17.117101 c -0.1388977,0.133341 -0.2929454,0.336507 -0.3423283,0.45148 -0.079874,0.185963 -0.078431,0.226373 0.013074,0.366027 0.1441068,0.219935 0.3952464,0.157035 0.8192262,-0.205182 z m 1.5453962,-0.689599 c 0.6610981,-0.277389 1.2634756,-0.642466 1.8073615,-1.095368 0.73384,-0.61108 2.106777,-1.931053 2.106777,-2.025505 0,-0.105091 -0.510937,-0.702545 -1.35087,-1.579609 l -0.61788,-0.645194 -1.1101766,1.113944 C 7.9229166,14.104638 7.5769266,14.558108 7.011781,15.695828 l -0.4143394,0.834125 0.3575882,0.321043 c 0.6054287,0.543555 0.5856656,0.540937 1.4248337,0.188831 z M 13.770843,12.784209 C 14.750604,11.933153 17.703708,8.9443507 17.89565,8.6095388 18.35602,7.8064957 17.931615,6.7502632 16.989495,6.3543557 16.695824,6.2309465 16.00037,6.2441075 15.75151,6.3777838 c -0.109308,0.058715 -0.55844,0.4301925 -0.998073,0.825505 -0.959105,0.8624169 -3.541712,3.3894552 -3.720284,3.6402372 l -0.12686,0.178158 0.169479,0.256101 c 0.286328,0.432671 1.857844,1.989374 2.007571,1.988649 0.07568,-3.75e-4 0.372239,-0.208378 0.6875,-0.482225 z m -2.50922,-2.8301433 c 0.593226,-0.40815 3.511052,-3.3734137 3.676279,-3.7360477 0.08876,-0.1948079 -0.0015,-0.2714613 -0.324882,-0.2759244 -0.197685,-0.00273 -0.339851,0.049152 -0.586828,0.2141487 -0.744701,0.497509 -2.941834,2.6709909 -3.19505,3.1606565 -0.11411,0.2206644 -0.129319,0.5266532 -0.03494,0.7029992 0.08667,0.161936 0.146717,0.153443 0.465422,-0.065832 z"
     id="path85"
     inkscape:connector-curvature="0" />
  <path
     style="fill:#333333;stroke:#ff0000;stroke-width:0.0078125"
     d="m 11.598317,23.997877 c -0.02363,-0.0034 -0.06234,-0.0044 -0.08601,-0.0022 -0.08066,0.0073 -0.524805,-0.02214 -0.796801,-0.05278 -0.171486,-0.01932 -0.484411,-0.06182 -0.5,-0.06791 -0.0064,-0.0025 -0.01929,-0.0038 -0.02855,-0.003 -0.0093,8.93e-4 -0.01914,-0.0021 -0.02196,-0.0067 -0.0028,-0.0046 -0.01332,-0.0062 -0.02333,-0.0037 -0.01001,0.0025 -0.02056,7.55e-4 -0.02344,-0.0039 -0.0029,-0.0047 -0.01343,-0.0064 -0.02344,-0.0039 -0.01001,0.0025 -0.02064,6.24e-4 -0.02362,-0.0042 -0.003,-0.0048 -0.01232,-0.0066 -0.02076,-0.0039 -0.0084,0.0027 -0.02028,7.73e-4 -0.02631,-0.0042 -0.006,-0.005 -0.01817,-0.0068 -0.026969,-0.004 -0.00978,0.0031 -0.016,0.0016 -0.016,-0.0039 0,-0.0059 -0.00803,-0.0072 -0.023437,-0.0038 -0.015776,0.0035 -0.023437,0.0021 -0.023437,-0.0041 0,-0.006 -0.00691,-0.0075 -0.019531,-0.0044 -0.012309,0.0031 -0.019531,0.0016 -0.019531,-0.004 0,-0.0058 -0.00832,-0.0073 -0.023437,-0.0043 -0.014504,0.0029 -0.023437,0.0015 -0.023437,-0.0038 0,-0.0051 -0.0077,-0.0065 -0.019531,-0.0036 -0.012245,0.0031 -0.019531,0.0016 -0.019531,-0.004 0,-0.0053 -0.00797,-0.0073 -0.019531,-0.0051 -0.010742,0.0021 -0.019531,4.53e-4 -0.019531,-0.0036 0,-0.004 -0.00791,-0.0063 -0.017578,-0.005 -0.00967,0.0012 -0.021094,1.14e-4 -0.025391,-0.0025 -0.013962,-0.0086 -0.1754977,-0.03879 -0.1828914,-0.03422 -0.00395,0.0024 -0.00836,0.0015 -0.0098,-0.0021 -0.00144,-0.0036 -0.053597,-0.018 -0.1159016,-0.03195 C 8.8024934,23.579114 8.1493337,23.375137 7.5592543,23.136407 5.7734541,22.413921 4.1940107,21.277827 2.9024398,19.786759 2.0167234,18.764234 1.31632,17.613917 0.83179713,16.386011 l -0.0147842,-0.03747 0.0513079,0.0023 0.051308,0.0023 0.0645696,0.15625 C 1.46135,17.66406 2.1140787,18.724708 2.9370645,19.682717 c 1.5371015,1.789284 3.4823236,3.063877 5.6968195,3.7328 0.8050477,0.243177 1.566455,0.38679 2.421464,0.456725 0.103125,0.0084 0.241992,0.0199 0.308594,0.02547 0.07671,0.0064 0.245664,0.01 0.460937,0.0097 0.353918,-4.91e-4 0.703736,-0.01854 1.136719,-0.05864 0.321416,-0.02977 0.868646,-0.101061 0.986328,-0.128496 0.01681,-0.0039 0.01758,-0.0019 0.01758,0.04548 v 0.04958 l -0.08789,0.01351 c -0.629651,0.09675 -1.11325,0.143169 -1.673828,0.160654 -0.409617,0.01278 -0.560086,0.01487 -0.605469,0.0084 z"
     id="path87"
     inkscape:connector-curvature="0" />
  <path
     style="fill:#333333;stroke:#ff0000;stroke-width:0.00552427"
     d="m 0.11801935,13.747244 c -0.005246,-0.04259 -0.007974,-0.08237 -0.006063,-0.08839 0.002126,-0.0067 9.4221e-4,-0.01095 -0.003048,-0.01095 -0.004582,0 -0.005436,-0.0073 -0.002869,-0.02437 0.002314,-0.01543 0.001448,-0.02573 -0.00236,-0.02809 -0.003308,-0.002 -0.0046277,-0.0081 -0.002933,-0.01342 0.001694,-0.0053 -0.0018988,-0.06293 -0.0079849,-0.127974 -0.04136124,-0.442058 -0.06085036,-0.908069 -0.06085578,-1.455142 -5.52e-6,-0.560429 0.0221289,-1.0747 0.06394921,-1.485796 0.0046233,-0.04545 0.007014,-0.08818 0.0053128,-0.09496 -0.0017013,-0.0068 -4.2272e-4,-0.01397 0.002841,-0.01599 0.003614,-0.0022 0.004549,-0.01187 0.002393,-0.02463 -0.002212,-0.01309 -0.001237,-0.02239 0.002597,-0.02476 0.003376,-0.0021 0.00468,-0.0084 0.002897,-0.01401 -0.00397,-0.01251 0.0183073,-0.195879 0.0446194,-0.3672694 0.0407487,-0.265427 0.11755027,-0.6122681 0.21896126,-0.9888447 0.0155461,-0.057729 0.0300846,-0.1057018 0.0323076,-0.1066071 0.002223,-9.053e-4 0.002773,-0.0065 0.001222,-0.01243 -0.001551,-0.00593 -1.2216e-4,-0.010784 0.003175,-0.010784 0.003297,0 0.004564,-0.00373 0.002815,-0.00829 -0.00175,-0.00456 -1.6504e-4,-0.00829 0.003527,-0.00829 0.003692,0 0.005277,-0.00372 0.003527,-0.00829 -0.001749,-0.00456 -6.0437e-4,-0.00829 0.002543,-0.00829 0.003209,0 0.004183,-0.00485 0.002216,-0.011048 -0.002148,-0.00677 -9.9271e-4,-0.011049 0.002981,-0.011049 0.003568,0 0.005057,-0.00373 0.003308,-0.00829 -0.001749,-0.00456 -4.8194e-4,-0.00829 0.002815,-0.00829 0.003297,0 0.004695,-0.00497 0.003106,-0.011049 -0.001589,-0.00608 -3.7012e-4,-0.011049 0.002709,-0.011049 0.003079,0 0.004167,-0.00373 0.002418,-0.00829 -0.001749,-0.00456 -4.8194e-4,-0.00829 0.002815,-0.00829 0.003297,0 0.004695,-0.00497 0.003106,-0.011049 -0.001589,-0.00608 -0.00103,-0.011049 0.001243,-0.011049 0.005619,0 0.0182074,-0.043182 0.0143893,-0.04936 -0.001679,-0.00272 -8.7109e-4,-0.00577 0.001795,-0.00679 0.002666,-0.00102 0.0166231,-0.040385 0.0310158,-0.087479 C 0.63406922,8.1330626 0.81779026,7.6409019 1.0070035,7.214449 1.0677776,7.0774749 1.1697651,6.8584609 1.2119525,6.7743293 l 0.029779,-0.059386 h 0.052434 c 0.028839,0 0.052434,0.00128 0.052434,0.00284 0,0.00156 -0.015862,0.034501 -0.03525,0.073197 C 1.2287561,6.9558335 1.0846475,7.2714842 1.0068459,7.4579579 0.7194464,8.1467923 0.51653031,8.7836849 0.33626634,9.5627055 0.25312501,9.9220052 0.22184638,10.11643 0.20029014,10.407919 c -0.004719,0.06381 -0.0121563,0.155784 -0.0165283,0.204398 -0.0383141,0.426026 -0.0545488,0.838872 -0.054526,1.386592 2.375e-5,0.567844 0.0154756,0.949052 0.0576599,1.4225 0.011002,0.123479 0.0356949,0.350953 0.0418273,0.385318 l 0.003204,0.01795 h -0.0521845 -0.0521845 z"
     id="path89"
     inkscape:connector-curvature="0" />
  <path
     style="fill:#333333;stroke:#ff0000;stroke-width:0.015625"
     d=""
     id="path91"
     inkscape:connector-curvature="0" />
  <path
     style="fill:#333333;stroke:#ff0000;stroke-width:0.015625"
     d="M 0.72755545,16.098971 C 0.67955909,15.967917 0.61725436,15.790378 0.5891005,15.70444 0.5609466,15.6185 0.5323243,15.545978 0.5254953,15.543274 c -0.006829,-0.0027 -0.008543,-0.01501 -0.00381,-0.02734 0.004734,-0.01234 0.002581,-0.02244 -0.004784,-0.02246 -0.007365,-1.6e-5 -0.0142123,-0.02256 -0.0152168,-0.05009 -0.001005,-0.02753 -0.009399,-0.05258 -0.0186535,-0.05566 -0.009255,-0.0031 -0.0129543,-0.0157 -0.008221,-0.02804 0.004734,-0.01234 0.001481,-0.02243 -0.007227,-0.02243 -0.008709,0 -0.0121564,-0.01406 -0.007662,-0.03125 0.004495,-0.01719 5.4141e-4,-0.03125 -0.008785,-0.03125 -0.009326,0 -0.0129098,-0.01055 -0.007963,-0.02344 0.004947,-0.01289 0.001869,-0.02344 -0.00684,-0.02344 -0.008709,0 -0.0121564,-0.01406 -0.007662,-0.03125 0.004495,-0.01719 5.4141e-4,-0.03125 -0.008785,-0.03125 -0.009326,0 -0.0129098,-0.01055 -0.007963,-0.02344 0.004947,-0.01289 7.3647e-4,-0.02344 -0.009356,-0.02344 -0.0112391,0 -0.0145062,-0.01211 -0.008431,-0.03125 0.005941,-0.01872 0.002808,-0.03125 -0.007813,-0.03125 -0.0106203,0 -0.0137533,-0.01253 -0.007813,-0.03125 0.005941,-0.01872 0.002808,-0.03125 -0.007813,-0.03125 -0.0106203,0 -0.0137533,-0.01253 -0.007813,-0.03125 0.006075,-0.01914 0.002808,-0.03125 -0.008431,-0.03125 -0.0100923,0 -0.0143024,-0.01055 -0.009356,-0.02344 0.004947,-0.01289 0.001363,-0.02344 -0.007963,-0.02344 -0.009326,0 -0.0132796,-0.01406 -0.008785,-0.03125 0.004495,-0.01719 9.7906e-4,-0.03125 -0.007813,-0.03125 -0.008792,0 -0.0123071,-0.01406 -0.007813,-0.03125 0.004495,-0.01719 0.001357,-0.03125 -0.006972,-0.03125 -0.008329,0 -0.0131201,-0.01231 -0.0106459,-0.02734 0.002474,-0.01504 -3.75e-5,-0.03455 -0.00558,-0.04336 -0.014067,-0.02235 -0.11592934,-0.505211 -0.13749419,-0.651761 -0.009785,-0.0665 -0.0136923,-0.127534 -0.008683,-0.135639 0.005009,-0.0081 0.001962,-0.01915 -0.006772,-0.02455 -0.032466,-0.02007 -0.0142286,-0.03922 0.0373414,-0.03922 0.0524799,0 0.0533647,0.0011 0.0635134,0.08203 0.0205022,0.163409 0.0865608,0.528329 0.12561569,0.693925 0.0873543,0.370388 0.30262682,1.068351 0.46265421,1.500031 0.041935,0.113122 0.0762455,0.209801 0.0762455,0.214844 0,0.005 -0.0196036,0.0092 -0.0435635,0.0092 -0.0419486,0 -0.0467983,-0.0088 -0.13082958,-0.238282 z"
     id="path93"
     inkscape:connector-curvature="0" />
  <path
     style="fill:#333333;stroke:#ff0000;stroke-width:0.015625"
     d="M 0.7708762,16.177096 C 0.67759025,15.933608 0.54158734,15.55167 0.52467578,15.48569 c -0.008811,-0.03438 -0.0223079,-0.07656 -0.0299934,-0.09375 -0.007686,-0.01719 -0.0171456,-0.05047 -0.0210224,-0.07396 -0.003877,-0.02349 -0.010684,-0.04859 -0.0151272,-0.05578 -0.004443,-0.0072 -0.0118712,-0.03016 -0.0165067,-0.05104 -0.004635,-0.02088 -0.0266817,-0.101249 -0.0489917,-0.178593 -0.0991296,-0.34366 -0.1949099,-0.771559 -0.23170765,-1.035156 L 0.14115033,13.85288 h 0.035941 c 0.0283882,0 0.0377277,0.01067 0.0444432,0.05078 0.004676,0.02793 0.0230039,0.138672 0.0407281,0.246094 0.0515,0.312127 0.10272673,0.537602 0.19550018,0.860497 0.0965914,0.336183 0.27130302,0.876259 0.36633419,1.132428 0.0342245,0.09226 0.0622264,0.170262 0.0622264,0.173344 0,0.0031 -0.0135167,0.0056 -0.0300371,0.0056 -0.0234771,0 -0.0421304,-0.03157 -0.0854102,-0.144532 z"
     id="path95"
     inkscape:connector-curvature="0" />
  <path
     style="fill:#333333;stroke:#ff0000;stroke-width:0.00390625"
     d="m 0.83980934,16.302331 c -0.0103684,-0.01129 -0.0312384,-0.05342 -0.0498232,-0.100586 -0.0755223,-0.191667 -0.22589379,-0.613436 -0.2583419,-0.72461 -0.007525,-0.02578 -0.0195382,-0.06269 -0.0266967,-0.08203 -0.007158,-0.01934 -0.017524,-0.05574 -0.0230344,-0.08089 -0.00551,-0.02515 -0.0125452,-0.05064 -0.0156329,-0.05664 -0.003088,-0.006 -0.0121273,-0.03552 -0.0200881,-0.0656 C 0.43823114,15.161895 0.41682034,15.084553 0.39861204,15.0201 0.29323336,14.647087 0.204352,14.243535 0.16502893,13.959557 c -0.005504,-0.03975 -0.0109613,-0.07807 -0.012128,-0.08516 l -0.002121,-0.0129 0.022278,0.0012 c 0.0185423,9.81e-4 0.0234584,0.0028 0.0293175,0.01094 0.005112,0.0071 0.0146371,0.05576 0.0347835,0.177734 0.0664009,0.402007 0.10958662,0.599893 0.2011859,0.921875 0.0968826,0.340554 0.27018059,0.877643 0.38437196,1.191256 0.0281319,0.07726 0.051149,0.14186 0.051149,0.143554 0,0.0072 -0.0262588,0.0028 -0.0340561,-0.0057 z"
     id="path97"
     inkscape:connector-curvature="0" />
  <path
     style="fill:#333333;stroke:#ff0000;stroke-width:0.00390625"
     d="m 0.84215625,16.298942 c -0.0111946,-0.0112 -0.0408863,-0.07491 -0.0680464,-0.146025 -0.1110677,-0.290808 -0.25321644,-0.702841 -0.29108852,-0.84375 -0.008084,-0.03008 -0.021952,-0.0793 -0.0308176,-0.109375 -0.10627432,-0.360554 -0.20559975,-0.775245 -0.25963261,-1.083985 -0.007963,-0.0455 -0.0374556,-0.240911 -0.0374556,-0.248173 0,-0.0041 0.0341262,-0.0015 0.0402056,0.0031 0.007979,0.006 0.0150282,0.03947 0.0416989,0.198242 0.0683115,0.406667 0.11078776,0.598175 0.20707021,0.933594 0.10178637,0.354593 0.26216211,0.848655 0.39221785,1.208287 0.0185081,0.05118 0.0336512,0.09381 0.0336512,0.09473 0,0.0053 -0.0208323,3.73e-4 -0.0278029,-0.0066 z"
     id="path99"
     inkscape:connector-curvature="0" />
  <path
     style="fill:#333333;stroke:#ff0000;stroke-width:0.00390625"
     d="M 0.84168223,16.292088 C 0.82035207,16.266739 0.76159688,16.118695 0.66087352,15.83651 0.5595591,15.55267 0.48666356,15.319581 0.39394742,14.982995 0.31977232,14.713718 0.23654152,14.349859 0.19647616,14.119714 c -0.0100765,-0.05788 -0.0374545,-0.237607 -0.0374545,-0.245873 0,-0.003 0.005826,-0.0042 0.0165724,-0.0034 0.0257997,0.0019 0.0219944,-0.01205 0.0654603,0.239483 0.0756855,0.437986 0.12446305,0.644705 0.25255174,1.070312 0.0767348,0.254971 0.2168341,0.684514 0.29621863,0.908204 0.0810512,0.228385 0.0767236,0.214843 0.0686594,0.214843 -0.004049,0 -0.0116098,-0.005 -0.0168019,-0.01122 z"
     id="path101"
     inkscape:connector-curvature="0" />
  <path
     style="fill:#333333;stroke:#ff0000;stroke-width:0.00390625"
     d="M 0.84526903,16.292363 C 0.80876582,16.252027 0.60788395,15.697607 0.49840914,15.335053 0.34980358,14.842908 0.23547785,14.361675 0.17883871,13.98988 c -0.008751,-0.05744 -0.0159108,-0.107101 -0.0159108,-0.110351 0,-0.0041 0.004038,-0.0059 0.0133488,-0.0059 0.0211359,0 0.0187694,-0.0093 0.0665045,0.261719 0.0605407,0.34374 0.0961707,0.507685 0.16426951,0.755859 0.0859451,0.313211 0.25379692,0.839997 0.39783321,1.24856 0.0269879,0.07655 0.0502242,0.143788 0.0516362,0.149414 0.002981,0.01188 -0.002089,0.01331 -0.0112511,0.0032 z"
     id="path103"
     inkscape:connector-curvature="0" />
  <path
     style="fill:#333333;stroke:#ff0000;stroke-width:0.00390625"
     d="m 0.84753032,16.290706 c -0.036182,-0.0449 -0.2186327,-0.545147 -0.33091855,-0.907321 -0.14862095,-0.479371 -0.27642316,-1.012485 -0.33571296,-1.40039 -0.0169934,-0.11118 -0.0167259,-0.105469 -0.00494,-0.105469 0.0178103,0 0.01787,2.36e-4 0.0611456,0.242188 0.0563933,0.315291 0.0813308,0.437143 0.12510993,0.611328 0.0808656,0.32174 0.24954096,0.862415 0.44100193,1.413595 0.02827,0.08138 0.050708,0.148663 0.0498623,0.149509 -8.4574e-4,8.46e-4 -0.003343,-7.02e-4 -0.005549,-0.0034 z"
     id="path105"
     inkscape:connector-curvature="0" />
  <path
     style="fill:#333333;stroke:#ff0000;stroke-width:0.00390625"
     d="m 0.82416012,16.238379 c -0.03919,-0.08588 -0.11728262,-0.29567 -0.20460359,-0.549662 -0.19118496,-0.556103 -0.35703594,-1.205305 -0.43507077,-1.703029 -0.0161582,-0.103061 -0.0162297,-0.104256 -0.006236,-0.104256 0.0125194,0 0.0128019,0.0012 0.0628472,0.275989 0.0416473,0.228642 0.0574089,0.310028 0.0785613,0.405652 0.0739796,0.334442 0.22791162,0.844024 0.45715027,1.513366 0.0341573,0.09973 0.0615437,0.183017 0.0608586,0.185072 -6.8512e-4,0.0021 -0.006763,-0.0084 -0.0135073,-0.02313 z"
     id="path107"
     inkscape:connector-curvature="0" />
  <path
     style="fill:#333333;stroke:#ff0000;stroke-width:0.00390625"
     d="M 0.79219782,16.154377 C 0.74555414,16.037214 0.67000809,15.82774 0.60571305,15.637292 0.42879248,15.113236 0.28081065,14.537496 0.20008907,14.059167 c -0.0249885,-0.148074 -0.0282397,-0.173828 -0.021944,-0.173828 0.009569,0 0.0133807,0.01797 0.0766392,0.361328 0.0440643,0.239174 0.0626963,0.327438 0.10144413,0.480562 0.0777155,0.307116 0.19405894,0.686406 0.37678792,1.228362 0.0452626,0.134244 0.0817745,0.245643 0.0811375,0.247554 -6.3695e-4,0.0019 -0.0105172,-0.02004 -0.021956,-0.04877 z"
     id="path109"
     inkscape:connector-curvature="0" />
  <path
     style="fill:#333333;stroke:#ff0000;stroke-width:0.00390625"
     d="m 0.74312801,16.017237 c -0.24930499,-0.67261 -0.43926425,-1.36276 -0.54109619,-1.965883 -0.0198599,-0.117625 -0.0259946,-0.162109 -0.0223558,-0.162109 0.004156,0 0.0187113,0.07131 0.065057,0.318724 0.050763,0.270996 0.0614889,0.323966 0.0885152,0.437135 0.0707311,0.296177 0.17226257,0.634763 0.35763862,1.192649 0.0452021,0.136035 0.0813986,0.248124 0.0804366,0.249086 -9.6196e-4,9.62e-4 -0.01365,-0.03036 -0.0281956,-0.0696 z"
     id="path111"
     inkscape:connector-curvature="0" />
  <path
     style="fill:#333333;stroke:#ff0000;stroke-width:0.00390625"
     d=""
     id="path113"
     inkscape:connector-curvature="0" />
  <path
     style="fill:#333333;stroke:#ff0000;stroke-width:0.00390625"
     d=""
     id="path115"
     inkscape:connector-curvature="0" />
  <path
     style="fill:#333333;stroke:#ff0000;stroke-width:0.00390625"
     d=""
     id="path117"
     inkscape:connector-curvature="0" />
  <path
     style="fill:#333333;stroke:#ff0000;stroke-width:0.0078125"
     d="m 1.24696,6.7061482 c 0,-0.0085 0.1942169,-0.3765038 0.2734286,-0.5180958 C 2.5792316,4.295355 4.1313162,2.7087529 5.9891475,1.6199111 6.170276,1.5137548 6.4280989,1.3711314 6.544121,1.3129089 6.5869324,1.2914251 6.62196,1.2701564 6.62196,1.2656451 c 0,-0.00451 0.00352,-0.00603 0.00781,-0.00337 0.0043,0.00266 0.00781,8.978e-4 0.00781,-0.00391 0,-0.0048 0.00352,-0.00656 0.00781,-0.00391 0.0043,0.00266 0.00781,8.978e-4 0.00781,-0.00391 0,-0.0048 0.00352,-0.00656 0.00781,-0.00391 0.0043,0.00266 0.00781,8.978e-4 0.00781,-0.00391 0,-0.0048 0.00352,-0.00656 0.00781,-0.00391 0.0043,0.00266 0.00781,8.978e-4 0.00781,-0.00391 0,-0.0048 0.00352,-0.00656 0.00781,-0.00391 0.0043,0.00266 0.00781,8.978e-4 0.00781,-0.00391 0,-0.0048 0.00352,-0.00656 0.00781,-0.00391 0.0043,0.00266 0.00781,8.978e-4 0.00781,-0.00391 0,-0.0048 0.00352,-0.00656 0.00781,-0.00391 0.0043,0.00266 0.00781,8.978e-4 0.00781,-0.00391 0,-0.0048 0.00352,-0.00656 0.00781,-0.00391 0.0043,0.00266 0.00781,8.978e-4 0.00781,-0.00391 0,-0.0048 0.00352,-0.00656 0.00781,-0.00391 0.0043,0.00266 0.00781,8.978e-4 0.00781,-0.00391 0,-0.0048 0.00352,-0.00656 0.00781,-0.00391 0.0043,0.00266 0.00781,8.978e-4 0.00781,-0.00391 0,-0.0048 0.00352,-0.00656 0.00781,-0.00391 0.0043,0.00266 0.00781,8.978e-4 0.00781,-0.00391 0,-0.0048 0.00352,-0.00656 0.00781,-0.00391 0.0043,0.00266 0.00781,8.978e-4 0.00781,-0.00391 0,-0.0048 0.0032,-0.00676 0.00711,-0.00434 0.00932,0.00576 0.032921,-0.0034 0.028249,-0.010959 -0.00479,-0.00775 0.034077,-0.025227 0.043354,-0.019493 0.00397,0.00246 0.00723,5.36e-4 0.00723,-0.00427 0,-0.0048 0.00352,-0.00656 0.00781,-0.00391 0.0043,0.00266 0.00781,8.978e-4 0.00781,-0.00391 0,-0.0048 0.00352,-0.00656 0.00781,-0.00391 0.0043,0.00266 0.00781,8.978e-4 0.00781,-0.00391 0,-0.0048 0.00322,-0.00675 0.00715,-0.00432 0.00393,0.00243 0.00832,0.0011 0.00977,-0.00296 0.00918,-0.02582 0.6936784,-0.31513278 1.0455891,-0.4419298 0.2343885,-0.0844526 0.685177,-0.2182552 0.7070439,-0.20986409 0.00644,0.002471 0.011706,2.2418e-4 0.011706,-0.004992 0,-0.005221 0.00527,-0.007463 0.011719,-0.004987 0.00645,0.002473 0.011719,8.5471e-4 0.011719,-0.003597 0,-0.004539 0.00686,-0.005915 0.015625,-0.003135 0.00936,0.00297 0.015625,0.001404 0.015625,-0.003906 0,-0.00531 0.00627,-0.006877 0.015625,-0.003906 0.00876,0.002781 0.015625,0.001404 0.015625,-0.003135 0,-0.004452 0.0045,-0.006366 0.010004,-0.004255 0.0055,0.002111 0.074936,-0.0118154 0.1542969,-0.0309482 0.5048222,-0.12170488 1.1342081,-0.22502083 1.7380431,-0.28530583 0.869535,-0.08681172 1.710475,-0.09859625 2.539062,-0.0355812 0.08594,0.0065356 0.16416,0.01363704 0.173828,0.01578087 0.01587,0.0035191 0.01758,0.0085051 0.01758,0.05131073 v 0.0474129 l -0.0293,-0.004477 C 13.359213,0.17912112 13.099389,0.15902023 12.9312,0.14888583 12.528841,0.1246414 11.818823,0.12472732 11.372324,0.1490745 10.069944,0.22009212 8.7845553,0.46968448 7.8328975,0.83634809 5.8212967,1.6113964 4.0775574,2.8840878 2.7322191,4.5591461 2.2248594,5.1908512 1.8022464,5.840766 1.4075703,6.5962555 l -0.0602,0.1152344 h -0.050205 c -0.027613,0 -0.050205,-0.0024 -0.050205,-0.00534 z"
     id="path119"
     inkscape:connector-curvature="0" />
  <path
     style="fill:#333333;stroke:#ff0000;stroke-width:0.00552427"
     d="M 22.474358,6.4029048 C 22.457075,6.3702426 22.43172,6.3223886 22.418012,6.2965626 22.137213,5.7675119 21.859255,5.3199799 21.581341,4.9494647 21.135967,4.3556901 20.515355,3.6993376 19.817622,3.0841734 18.908656,2.2827739 17.915389,1.6008831 17.135373,1.2427746 16.520727,0.96058783 15.677496,0.66528391 14.878923,0.45255371 14.727761,0.41228588 14.477108,0.35252841 14.366547,0.3303993 l -0.03177,-0.006358 V 0.2719524 c 0,-0.0286489 0.0011,-0.0520889 0.0024,-0.0520889 0.01261,0 0.166455,0.0355862 0.167702,0.038791 9.05e-4,0.002327 0.0062,0.003035 0.01181,0.001573 0.0056,-0.001461 0.01169,-1.8784e-4 0.01355,0.00283 0.0019,0.003018 0.0084,0.004187 0.01443,0.002599 0.0064,-0.001687 0.01104,-1.6697e-4 0.01104,0.003653 0,0.004027 0.0042,0.005193 0.01105,0.003034 0.0066,-0.0021 0.01105,-9.9272e-4 0.01105,0.002762 0,0.003755 0.0044,0.004863 0.01105,0.002762 0.0068,-0.002149 0.01105,-9.9271e-4 0.01105,0.002989 0,0.00417 0.0049,0.005254 0.01381,0.003029 0.0087,-0.002173 0.01381,-0.001126 0.01381,0.002808 0,0.003554 0.0048,0.005021 0.01105,0.003385 0.0061,-0.001589 0.01105,-3.4615e-4 0.01105,0.002762 0,0.003108 0.0049,0.004382 0.01078,0.002831 0.0059,-0.001551 0.01153,-0.001065 0.01243,0.001079 9.05e-4,0.002145 0.04888,0.0158217 0.106607,0.0303936 0.495411,0.12505241 1.113578,0.31925446 1.62639,0.5109437 0.04074,0.015228 0.07616,0.0263939 0.07872,0.024813 0.0026,-0.001581 0.0047,2.21e-5 0.0047,0.003567 0,0.003543 0.0037,0.00501 0.0083,0.003262 0.0046,-0.001749 0.0083,-6.2519e-4 0.0083,0.002497 0,0.003122 0.0025,0.004141 0.0055,0.002263 0.003,-0.001878 0.0055,-5.1541e-4 0.0055,0.003027 0,0.003543 0.0037,0.00501 0.0083,0.003262 0.0046,-0.001749 0.0083,-8.4991e-4 0.0083,0.001998 0,0.002848 0.0041,0.00359 0.0092,0.00165 0.0061,-0.002356 0.0079,-0.001402 0.0052,0.002872 -0.0026,0.004181 -9.83e-4,0.005259 0.0046,0.00311 0.0047,-0.001814 0.0086,-4.0051e-4 0.0086,0.003151 0,0.003543 0.0023,0.005037 0.0051,0.00332 0.0052,-0.0032 0.252747,0.0946952 0.400983,0.1585595 0.206981,0.089174 0.455579,0.2096046 0.627005,0.3037457 0.203899,0.1119751 0.497184,0.2876567 0.497184,0.2978201 0,0.00294 0.0022,0.00397 0.0049,0.00229 0.0027,-0.00168 0.0064,8.158e-4 0.0082,0.00555 0.0018,0.00473 0.0058,0.00706 0.0089,0.00517 0.0031,-0.00189 0.0056,-0.00123 0.0056,0.00147 0,0.0027 0.03045,0.024422 0.06767,0.048266 0.449524,0.2879791 0.996044,0.6960345 1.468075,1.0961291 0.624227,0.5290961 1.223018,1.124136 1.683766,1.6732161 0.41844,0.4986623 0.726315,0.9574873 1.09086,1.6257088 0.08401,0.1539973 0.180859,0.3382202 0.180859,0.3440323 0,0.0019 -0.02348,0.00345 -0.05218,0.00345 h -0.05218 z"
     id="path121"
     inkscape:connector-curvature="0" />
  <path
     style="fill:#333333;stroke:#ff0000;stroke-width:0.01104854"
     d="m 13.975231,23.760262 c 0,-0.02431 0.0048,-0.04419 0.01077,-0.04419 0.02582,0 0.445118,-0.08243 0.652144,-0.128203 1.15213,-0.254745 2.178507,-0.632995 3.032825,-1.117688 1.536512,-0.871731 3.075422,-2.235756 4.01576,-3.559402 0.740558,-1.042429 1.52554,-2.718341 1.865987,-3.983823 0.07026,-0.261174 0.15334,-0.598947 0.172559,-0.701583 0.06441,-0.343938 0.07764,-0.726173 0.07764,-2.242854 0,-1.343327 -0.0049,-1.533351 -0.05024,-1.950068 -0.0213,-0.1957093 -0.05188,-0.4002106 -0.06247,-0.4177309 -0.003,-0.00491 0.01849,-0.0074 0.04769,-0.00552 l 0.05309,0.00341 0.01895,0.1049612 c 0.02915,0.161417 0.05641,0.3859487 0.04915,0.4048637 -0.0036,0.0093 -0.0036,0.02165 -8.8e-5,0.02736 0.0035,0.0057 0.0083,0.05623 0.01061,0.11225 0.0023,0.05602 0.0093,0.218701 0.01548,0.361503 0.01641,0.377207 0.01492,2.392033 -0.002,2.769817 -0.0076,0.168961 -0.01364,0.340762 -0.01346,0.38178 1.84e-4,0.04102 -0.0036,0.07458 -0.0085,0.07458 -0.0049,0 -0.006,0.01145 -0.0025,0.02544 0.0077,0.03074 -0.01963,0.247546 -0.05602,0.444126 -0.04852,0.262158 -0.22936,0.955699 -0.249191,0.955699 -0.0052,0 -0.0066,0.0075 -0.0031,0.01657 0.0035,0.0091 3.3e-4,0.01657 -0.0071,0.01657 -0.0074,0 -0.01055,0.0075 -0.0071,0.01657 0.0035,0.0091 0.0012,0.01657 -0.0051,0.01657 -0.0066,0 -0.0083,0.0099 -0.004,0.02348 0.0055,0.0173 0.0038,0.02121 -0.0065,0.01484 -0.01017,-0.0063 -0.01228,-0.0022 -0.0077,0.01519 0.0034,0.0131 0.0012,0.02382 -0.005,0.02382 -0.0062,0 -0.0085,0.0071 -0.0051,0.01586 0.0033,0.0087 0.0021,0.01742 -0.0027,0.01933 -0.0048,0.0019 -0.034,0.07557 -0.06481,0.16368 -0.241274,0.69 -0.551,1.399489 -0.901387,2.0648 -0.467521,0.887726 -0.875692,1.483172 -1.496666,2.183365 -0.181735,0.204919 -0.813608,0.833408 -1.033728,1.028193 -0.675546,0.597789 -1.394981,1.127601 -2.089482,1.538751 -0.133687,0.07914 -0.251354,0.151296 -0.261482,0.160338 -0.01013,0.009 -0.02131,0.01354 -0.02486,0.01 -0.0035,-0.0035 -0.0064,-3.53e-4 -0.0064,0.0071 0,0.0074 -0.005,0.01047 -0.01105,0.0067 -0.0061,-0.0038 -0.01105,-7.29e-4 -0.01105,0.0067 0,0.0074 -0.0032,0.01031 -0.0072,0.0063 -0.004,-0.004 -0.01266,-1.22e-4 -0.01934,0.0085 -0.03056,0.03954 -0.845923,0.423214 -0.869032,0.408931 -0.0057,-0.0035 -0.01042,-8.84e-4 -0.01042,0.0059 0,0.0068 -0.005,0.0093 -0.01105,0.0055 -0.0061,-0.0038 -0.01105,-10e-4 -0.01105,0.0061 0,0.0071 -0.0075,0.01002 -0.01657,0.0065 -0.0091,-0.0035 -0.01657,-0.0012 -0.01657,0.005 0,0.0062 -0.005,0.0083 -0.01105,0.0045 -0.0061,-0.0038 -0.01105,-0.0017 -0.01105,0.0045 0,0.0062 -0.0083,0.0082 -0.01838,0.0043 -0.01344,-0.0052 -0.01592,-0.0031 -0.0092,0.0077 0.0067,0.01082 0.0042,0.0129 -0.0092,0.0077 -0.01011,-0.0039 -0.01839,-0.0024 -0.01839,0.0033 0,0.0057 -0.0068,0.0077 -0.01515,0.0045 -0.0083,-0.0032 -0.02205,0.0011 -0.03048,0.0095 -0.0084,0.0084 -0.02093,0.01347 -0.02776,0.01119 -0.0068,-0.0023 -0.01987,0.0033 -0.02897,0.0124 -0.0091,0.0091 -0.01871,0.01437 -0.02136,0.01172 -0.0027,-0.0027 -0.09398,0.02762 -0.202951,0.06726 -0.616001,0.224105 -1.354072,0.421358 -2.063309,0.551429 -0.202552,0.03715 -0.195377,0.03774 -0.195377,-0.0162 z"
     id="path123"
     inkscape:connector-curvature="0" />
</svg>
