<?xml version="1.0" encoding="UTF-8" standalone="no"?>
<svg
   xmlns:figma="http://www.figma.com/figma/ns"
   xmlns:dc="http://purl.org/dc/elements/1.1/"
   xmlns:cc="http://creativecommons.org/ns#"
   xmlns:rdf="http://www.w3.org/1999/02/22-rdf-syntax-ns#"
   xmlns:svg="http://www.w3.org/2000/svg"
   xmlns="http://www.w3.org/2000/svg"
   xmlns:xlink="http://www.w3.org/1999/xlink"
   xmlns:sodipodi="http://sodipodi.sourceforge.net/DTD/sodipodi-0.dtd"
   xmlns:inkscape="http://www.inkscape.org/namespaces/inkscape"
   viewBox="0 0 109 24"
   version="1.1"
   id="svg3846"
   sodipodi:docname="logojohnv4.svg"
   inkscape:version="0.92.3 (2405546, 2018-03-11)">
  <metadata
     id="metadata3850">
    <rdf:RDF>
      <cc:Work
         rdf:about="">
        <dc:format>image/svg+xml</dc:format>
        <dc:type
           rdf:resource="http://purl.org/dc/dcmitype/StillImage" />
        <dc:title>Logo</dc:title>
      </cc:Work>
    </rdf:RDF>
  </metadata>
  <sodipodi:namedview
     pagecolor="#ffffff"
     bordercolor="#666666"
     borderopacity="1"
     objecttolerance="10"
     gridtolerance="10"
     guidetolerance="10"
     inkscape:pageopacity="0"
     inkscape:pageshadow="2"
     inkscape:window-width="1600"
     inkscape:window-height="834"
     id="namedview3848"
     showgrid="false"
     inkscape:zoom="14.917088"
     inkscape:cx="-169.90046"
     inkscape:cy="98.122456"
     inkscape:window-x="160"
     inkscape:window-y="1080"
     inkscape:window-maximized="1"
     inkscape:current-layer="g3837" />
  <title
     id="title3823">Logo</title>
  <g
     transform="translate(-1485.4753,-19.848765)"
     figma:type="canvas"
     id="g3837">
    <use
       xlink:href="#c"
       style="mix-blend-mode:normal;image-rendering:auto"
       id="use3827"
       transform="translate(1316.929,-65.938271)"
       x="0"
       y="0"
       width="100%"
       height="100%" />
    <use
       xlink:href="#b"
       style="mix-blend-mode:normal"
       id="use3825"
       transform="translate(1304.145,-66.274691)"
       x="0"
       y="0"
       width="100%"
       height="100%" />
    <use
       xlink:href="#d"
       style="mix-blend-mode:normal"
       id="use3829"
       transform="translate(1328.0309,-65.938272)"
       x="0"
       y="0"
       width="100%"
       height="100%" />
    <use
       xlink:href="#e"
       style="mix-blend-mode:normal"
       id="use3831"
       transform="translate(1337.1142,-66.274692)"
       x="0"
       y="0"
       width="100%"
       height="100%" />
    <text
       xml:space="preserve"
       style="font-style:normal;font-variant:normal;font-weight:normal;font-stretch:normal;font-size:21.33333397px;line-height:1.25;font-family:FontAwesome;-inkscape-font-specification:FontAwesome;letter-spacing:0px;word-spacing:0px;fill:#000000;fill-opacity:1;stroke:none"
       x="1304.4816"
       y="-15.024693"
       id="text3886"><tspan
         sodipodi:role="line"
         id="tspan3884"
         x="1304.4816"
         y="-15.024693">J</tspan></text>
    <text
       xml:space="preserve"
       style="font-style:normal;font-variant:normal;font-weight:normal;font-stretch:normal;font-size:21.33333397px;line-height:1.25;font-family:FontAwesome;-inkscape-font-specification:FontAwesome;letter-spacing:0px;word-spacing:0px;fill:#000000;fill-opacity:1;stroke:none"
       x="1319.2839"
       y="-13.67901"
       id="text3890"><tspan
         sodipodi:role="line"
         id="tspan3888"
         x="1319.2839"
         y="-13.67901">O</tspan></text>
    <text
       xml:space="preserve"
       style="font-style:normal;font-variant:normal;font-weight:normal;font-stretch:normal;font-size:21.33333397px;line-height:1.25;font-family:FontAwesome;-inkscape-font-specification:FontAwesome;letter-spacing:0px;word-spacing:0px;fill:#000000;fill-opacity:1;stroke:none"
       x="1344.1791"
       y="-13.679012"
       id="text3894"><tspan
         sodipodi:role="line"
         id="tspan3892"
         x="1344.1791"
         y="-13.679012">H</tspan></text>
    <text
       xml:space="preserve"
       style="font-style:normal;font-variant:normal;font-weight:normal;font-stretch:normal;font-size:21.33333397px;line-height:1.25;font-family:FontAwesome;-inkscape-font-specification:FontAwesome;letter-spacing:0px;word-spacing:0px;fill:#000000;fill-opacity:1;stroke:none"
       x="1365.7098"
       y="-14.351851"
       id="text3898"><tspan
         sodipodi:role="line"
         id="tspan3896"
         x="1365.7098"
         y="-14.351851">N</tspan></text>
    <text
       xml:space="preserve"
       style="font-style:normal;font-variant:normal;font-weight:normal;font-stretch:normal;font-size:40px;line-height:1.25;font-family:FontAwesome;-inkscape-font-specification:FontAwesome;letter-spacing:0px;word-spacing:0px;fill:#000000;fill-opacity:1;stroke:none"
       x="1397.6697"
       y="-11.996913"
       id="text3902"><tspan
         sodipodi:role="line"
         id="tspan3900"
         x="1397.6697"
         y="-11.996913">J</tspan></text>
    <text
       xml:space="preserve"
       style="font-style:normal;font-variant:normal;font-weight:normal;font-stretch:normal;font-size:40px;line-height:1.25;font-family:FontAwesome;-inkscape-font-specification:FontAwesome;letter-spacing:0px;word-spacing:0px;fill:#000000;fill-opacity:1;stroke:none"
       x="1407.0895"
       y="-5.2685189"
       id="text3906"><tspan
         sodipodi:role="line"
         id="tspan3904"
         x="1407.0895"
         y="-5.2685189">U</tspan></text>
    <text
       xml:space="preserve"
       style="font-style:normal;font-variant:normal;font-weight:normal;font-stretch:normal;font-size:40px;line-height:1.25;font-family:FontAwesome;-inkscape-font-specification:FontAwesome;letter-spacing:0px;word-spacing:0px;fill:#000000;fill-opacity:1;stroke:none"
       x="1436.0216"
       y="-4.9320989"
       id="text3910"><tspan
         sodipodi:role="line"
         id="tspan3908"
         x="1436.0216"
         y="-4.9320989">N</tspan></text>
    <text
       xml:space="preserve"
       style="font-style:normal;font-variant:normal;font-weight:normal;font-stretch:normal;font-size:40px;line-height:1.25;font-family:FontAwesome;-inkscape-font-specification:FontAwesome;letter-spacing:0px;word-spacing:0px;fill:#000000;fill-opacity:1;stroke:none"
       x="1466.2994"
       y="-5.2685156"
       id="text3914"><tspan
         sodipodi:role="line"
         id="tspan3912"
         x="1466.2994"
         y="-5.2685156">K</tspan></text>
    <text
       xml:space="preserve"
       style="font-style:normal;font-variant:normal;font-weight:normal;font-stretch:normal;font-size:40px;line-height:1.25;font-family:FontAwesome;-inkscape-font-specification:FontAwesome;letter-spacing:0px;word-spacing:0px;fill:#000000;fill-opacity:1;stroke:none"
       x="1496.5771"
       y="-5.2685204"
       id="text3918"><tspan
         sodipodi:role="line"
         id="tspan3916"
         x="1496.5771"
         y="-5.2685204">I</tspan></text>
    <text
       xml:space="preserve"
       style="font-style:normal;font-variant:normal;font-weight:normal;font-stretch:normal;font-size:40px;line-height:1.25;font-family:FontAwesome;-inkscape-font-specification:FontAwesome;letter-spacing:0px;word-spacing:0px;fill:#000000;fill-opacity:1;stroke:none"
       x="1508.6882"
       y="-5.2685189"
       id="text3922"><tspan
         sodipodi:role="line"
         id="tspan3920"
         x="1508.6882"
         y="-5.2685189">N</tspan></text>
    <text
       xml:space="preserve"
       style="font-style:normal;font-variant:normal;font-weight:normal;font-stretch:normal;font-size:40px;line-height:1.25;font-family:FontAwesome;-inkscape-font-specification:FontAwesome;letter-spacing:0px;word-spacing:0px;fill:#000000;fill-opacity:1;stroke:none"
       x="1540.3116"
       y="-5.2685175"
       id="text3926"><tspan
         sodipodi:role="line"
         id="tspan3924"
         x="1540.3116"
         y="-5.2685175">S</tspan></text>
  </g>
  <defs
     id="defs3844">
    <path
       id="b"
       d="M22.735 23.171c.283.323.053.829-.376.829h-5.907c-.285 0-.556-.121-.745-.333l-9.414-10.526v10.36c0 .276-.224.5-.5.5h-5.293c-.276 0-.5-.224-.5-.5v-23c0-.276.224-.5.5-.5h5.293c.276 0 .5.224.5.5v9.815l9.141-9.99c.19-.207.457-.325.738-.325h5.762c.437 0 .664.521.366.841l-9.851 10.563 10.287 11.767z" />
    <path
       id="c"
       d="M45.991 24c-.199 0-.38-.118-.459-.301l-2.024-4.669h-10.67l-2.024 4.669c-.079.183-.259.301-.459.301h-5.212c-.366 0-.608-.381-.453-.712l10.782-23c.082-.176.259-.288.453-.288h4.358c.194 0 .37.112.453.287l10.815 23c.156.332-.086.713-.452.713h-5.108zm-11.135-9.668h6.635l-3.317-7.694-3.317 7.694z" />
    <path
       id="d"
       d="M55.525 24c-.276 0-.5-.224-.5-.5v-23c0-.276.224-.5.5-.5h5.293c.276 0 .5.224.5.5v18.428h9.759c.276 0 .5.224.5.5v4.072c0 .276-.224.5-.5.5h-15.552z" />
    <path
       id="e"
       d="M75.279.5c0-.276.224-.5.5-.5h9.315c2.667 0 4.959.477 6.874 1.43 1.938.953 3.42 2.338 4.446 4.153 1.026 1.793 1.539 3.926 1.539 6.4 0 2.496-.513 4.652-1.539 6.468-1.003 1.793-2.474 3.166-4.412 4.119-1.915.953-4.218 1.43-6.908 1.43h-9.315c-.276 0-.5-.224-.5-.5v-23zm9.37 18.462c2.371 0 4.138-.579 5.301-1.736 1.163-1.157 1.744-2.905 1.744-5.242 0-2.338-.581-4.074-1.744-5.209-1.163-1.157-2.93-1.736-5.301-1.736h-3.078v13.923h3.078z" />
    <path
       id="f"
       d="M102.913 24c-.276 0-.5-.224-.5-.5v-23c0-.276.224-.5.5-.5h5.293c.276 0 .5.224.5.5v23c0 .276-.224.5-.5.5h-5.293z" />
  </defs>
  <text
     xml:space="preserve"
     style="font-style:normal;font-variant:normal;font-weight:normal;font-stretch:normal;font-size:40px;line-height:1.25;font-family:FontAwesome;-inkscape-font-specification:FontAwesome;letter-spacing:0px;word-spacing:0px;fill:#000000;fill-opacity:1;stroke:none;"
     x="-141.96915"
     y="-35.882717"
     id="text3878"><tspan
       sodipodi:role="line"
       id="tspan3876"
       x="-141.96915"
       y="-0.49209213" /></text>
</svg>
